<?xml version="1.0" encoding="UTF-8" standalone="no"?>
<!-- Created with Inkscape (http://www.inkscape.org/) -->

<svg
   version="1.1"
   id="svg2"
   xml:space="preserve"
   width="407.36276"
   height="235.4222"
   viewBox="0 0 407.36277 235.4222"
   sodipodi:docname="algoritmus2k.svg"
   inkscape:version="1.1.1 (3bf5ae0d25, 2021-09-20)"
   xmlns:inkscape="http://www.inkscape.org/namespaces/inkscape"
   xmlns:sodipodi="http://sodipodi.sourceforge.net/DTD/sodipodi-0.dtd"
   xmlns="http://www.w3.org/2000/svg"
   xmlns:svg="http://www.w3.org/2000/svg"><defs
     id="defs6" /><sodipodi:namedview
     id="namedview4"
     pagecolor="#ffffff"
     bordercolor="#666666"
     borderopacity="1.0"
     inkscape:pageshadow="2"
     inkscape:pageopacity="0.0"
     inkscape:pagecheckerboard="0"
     showgrid="false"
     inkscape:zoom="2.6177186"
     inkscape:cx="248.68983"
     inkscape:cy="110.01947"
     inkscape:window-width="2560"
     inkscape:window-height="1366"
     inkscape:window-x="0"
     inkscape:window-y="0"
     inkscape:window-maximized="1"
     inkscape:current-layer="g108"
     showborder="false"
     fit-margin-top="4"
     fit-margin-left="4"
     fit-margin-right="4"
     fit-margin-bottom="4"
     units="px"
     lock-margins="true" /><g
     id="g8"
     inkscape:groupmode="layer"
     inkscape:label="ink_ext_XXXXXX"
     transform="matrix(1.3333333,0,0,-1.3333333,3.6652048,141.0987)"><g
       id="g10"
       transform="scale(0.1)"
       style="stroke-width:2.25;stroke-miterlimit:4;stroke-dasharray:none"><path
         d="m 824.01424,984.2037 c 26.10724,0 47.40445,-21.29052 47.40445,-47.40947 0,-26.10723 -21.29721,-47.40445 -47.40445,-47.40445 -26.11894,0 -47.41114,21.29722 -47.41114,47.40445 0,26.11895 21.2922,47.40947 47.41114,47.40947 z"
         style="fill:#ffffff;fill-opacity:1;stroke:#231f20;stroke-width:3.76305;stroke-linecap:butt;stroke-linejoin:miter;stroke-miterlimit:4;stroke-dasharray:none;stroke-opacity:1"
         id="path12" /><path
         d="m 824.01424,462.7146 c 26.10724,0 47.40445,-21.2922 47.40445,-47.41114 0,-26.10557 -21.29721,-47.40445 -47.40445,-47.40445 -26.11894,0 -47.41114,21.29888 -47.41114,47.40445 0,26.11894 21.2922,47.41114 47.41114,47.41114 z"
         style="fill:#ffffff;fill-opacity:1;stroke:#231f20;stroke-width:3.76305;stroke-linecap:butt;stroke-linejoin:miter;stroke-miterlimit:4;stroke-dasharray:none;stroke-opacity:1"
         id="path14" /><path
         d="m 1487.7368,462.7146 c 26.1055,0 47.4027,-21.2922 47.4027,-47.41114 0,-26.10557 -21.2972,-47.40445 -47.4027,-47.40445 -26.119,0 -47.4179,21.29888 -47.4179,47.40445 0,26.11894 21.2989,47.41114 47.4179,47.41114 z"
         style="fill:#ffffff;fill-opacity:1;stroke:#231f20;stroke-width:3.76305;stroke-linecap:butt;stroke-linejoin:miter;stroke-miterlimit:4;stroke-dasharray:none;stroke-opacity:1"
         id="path16" /><path
         d="M 824.00755,889.38978 V 462.7146"
         style="fill:none;stroke:#231f20;stroke-width:3.76305;stroke-linecap:butt;stroke-linejoin:miter;stroke-miterlimit:4;stroke-dasharray:none;stroke-opacity:1"
         id="path18" /><path
         d="M 871.41869,415.31015 H 1440.3189"
         style="fill:none;stroke:#231f20;stroke-width:3.76305;stroke-linecap:butt;stroke-linejoin:miter;stroke-miterlimit:4;stroke-dasharray:none;stroke-opacity:1"
         id="path20" /><path
         d="M 1487.7301,462.7146 V 889.38978"
         style="fill:none;stroke:#231f20;stroke-width:3.76305;stroke-linecap:butt;stroke-linejoin:miter;stroke-miterlimit:4;stroke-dasharray:none;stroke-opacity:1"
         id="path22" /><path
         d="M 871.41869,936.79925 H 1440.3189"
         style="fill:none;stroke:#231f20;stroke-width:3.76305;stroke-linecap:butt;stroke-linejoin:miter;stroke-miterlimit:4;stroke-dasharray:none;stroke-opacity:1"
         id="path24" /><path
         d="m 1487.7368,984.2037 c 26.1055,0 47.4027,-21.29052 47.4027,-47.40947 0,-26.10723 -21.2972,-47.40445 -47.4027,-47.40445 -26.119,0 -47.4179,21.29722 -47.4179,47.40445 0,26.11895 21.2989,47.40947 47.4179,47.40947 z"
         style="fill:#ffffff;fill-opacity:1;stroke:#231f20;stroke-width:3.76305;stroke-linecap:butt;stroke-linejoin:miter;stroke-miterlimit:4;stroke-dasharray:none;stroke-opacity:1"
         id="path26" /><path
         d="m 2151.4643,982.7152 c 26.1072,0 47.3978,-21.30557 47.3978,-47.42452 0,-26.10556 -21.2906,-47.40445 -47.3978,-47.40445 -26.1239,0 -47.4312,21.29889 -47.4312,47.40445 0,26.11895 21.3073,47.42452 47.4312,47.42452 z"
         style="fill:#ffffff;fill-opacity:1;stroke:#231f20;stroke-width:3.76305;stroke-linecap:butt;stroke-linejoin:miter;stroke-miterlimit:4;stroke-dasharray:none;stroke-opacity:1"
         id="path28" /><path
         d="m 1535.1395,935.29068 h 568.8936"
         style="fill:none;stroke:#231f20;stroke-width:3.76305;stroke-linecap:butt;stroke-linejoin:miter;stroke-miterlimit:4;stroke-dasharray:none;stroke-opacity:1"
         id="path30" /><path
         d="M 2198.8621,935.29068 H 2767.769"
         style="fill:none;stroke:#231f20;stroke-width:3.76305;stroke-linecap:butt;stroke-linejoin:miter;stroke-miterlimit:4;stroke-dasharray:none;stroke-opacity:1"
         id="path32" /><path
         d="M 824.02093,366.39713 V -60.278054"
         style="fill:none;stroke:#231f20;stroke-width:3.76305;stroke-linecap:butt;stroke-linejoin:miter;stroke-miterlimit:4;stroke-dasharray:none;stroke-opacity:1"
         id="path34" /><path
         d="m 824.01424,-60.278054 c 26.10724,0 47.40445,-21.298889 47.40445,-47.417836 0,-26.10556 -21.29721,-47.40445 -47.40445,-47.40445 -26.11894,0 -47.41114,21.29889 -47.41114,47.40445 0,26.118947 21.2922,47.417836 47.41114,47.417836 z"
         style="fill:#ffffff;fill-opacity:1;stroke:#231f20;stroke-width:3.76305;stroke-linecap:butt;stroke-linejoin:miter;stroke-miterlimit:4;stroke-dasharray:none;stroke-opacity:1"
         id="path36" /><path
         d="m 1487.7368,-60.278054 c 26.1055,0 47.4027,-21.298889 47.4027,-47.417836 0,-26.10556 -21.2972,-47.40445 -47.4027,-47.40445 -26.119,0 -47.4179,21.29889 -47.4179,47.40445 0,26.118947 21.2989,47.417836 47.4179,47.417836"
         style="fill:#ffffff;fill-opacity:1;fill-rule:evenodd;stroke:none;stroke-width:3.76305;stroke-miterlimit:4;stroke-dasharray:none"
         id="path38" /><path
         d="m 1487.7368,-60.278054 c 26.1055,0 47.4027,-21.298889 47.4027,-47.417836 0,-26.10556 -21.2972,-47.40445 -47.4027,-47.40445 -26.119,0 -47.4179,21.29889 -47.4179,47.40445 0,26.118947 21.2989,47.417836 47.4179,47.417836 z"
         style="fill:#ffffff;fill-opacity:1;stroke:#231f20;stroke-width:3.76305;stroke-linecap:butt;stroke-linejoin:miter;stroke-miterlimit:4;stroke-dasharray:none;stroke-opacity:1"
         id="path40" /><path
         d="m 2151.4643,461.21105 c 26.1072,0 47.3978,-21.29722 47.3978,-47.41114 0,-26.10557 -21.2906,-47.40278 -47.3978,-47.40278 -26.1239,0 -47.4312,21.29721 -47.4312,47.40278 0,26.11392 21.3073,47.41114 47.4312,47.41114 z"
         style="fill:#ffffff;fill-opacity:1;stroke:#231f20;stroke-width:3.76305;stroke-linecap:butt;stroke-linejoin:miter;stroke-miterlimit:4;stroke-dasharray:none;stroke-opacity:1"
         id="path42" /><path
         d="m 2815.1668,982.7152 c 26.1239,0 47.4145,-21.30557 47.4145,-47.42452 0,-26.10556 -21.2906,-47.40445 -47.4145,-47.40445 -26.1073,0 -47.3978,21.29889 -47.3978,47.40445 0,26.11895 21.2905,47.42452 47.3978,47.42452 z"
         style="fill:#ffffff;fill-opacity:1;stroke:#231f20;stroke-width:3.76305;stroke-linecap:butt;stroke-linejoin:miter;stroke-miterlimit:4;stroke-dasharray:none;stroke-opacity:1"
         id="path44" /><path
         d="m 2815.1668,461.21105 c 26.1239,0 47.4145,-21.29722 47.4145,-47.41114 0,-26.10557 -21.2906,-47.40278 -47.4145,-47.40278 -26.1073,0 -47.3978,21.29721 -47.3978,47.40278 0,26.11392 21.2905,47.41114 47.3978,47.41114 z"
         style="fill:#ffffff;fill-opacity:1;stroke:#231f20;stroke-width:3.76305;stroke-linecap:butt;stroke-linejoin:miter;stroke-miterlimit:4;stroke-dasharray:none;stroke-opacity:1"
         id="path46" /><path
         d="m 2151.4643,-60.278054 c 26.1072,0 47.3978,-21.298889 47.3978,-47.417836 0,-26.10556 -21.2906,-47.40445 -47.3978,-47.40445 -26.1239,0 -47.4312,21.29889 -47.4312,47.40445 0,26.118947 21.3073,47.417836 47.4312,47.417836 z"
         style="fill:#ffffff;fill-opacity:1;stroke:#231f20;stroke-width:3.76305;stroke-linecap:butt;stroke-linejoin:miter;stroke-miterlimit:4;stroke-dasharray:none;stroke-opacity:1"
         id="path48" /><path
         d="M 2151.4309,461.21105 V 887.88623"
         style="fill:none;stroke:#231f20;stroke-width:3.76305;stroke-linecap:butt;stroke-linejoin:miter;stroke-miterlimit:4;stroke-dasharray:none;stroke-opacity:1"
         id="path50" /><path
         d="M 2815.1668,461.21105 V 887.88623"
         style="fill:none;stroke:#231f20;stroke-width:3.76305;stroke-linecap:butt;stroke-linejoin:miter;stroke-miterlimit:4;stroke-dasharray:none;stroke-opacity:1"
         id="path52" /><path
         d="M 1487.7234,-60.278054 V 366.39713"
         style="fill:none;stroke:#231f20;stroke-width:3.76305;stroke-linecap:butt;stroke-linejoin:miter;stroke-miterlimit:4;stroke-dasharray:none;stroke-opacity:1"
         id="path54" /><path
         d="M 2151.4309,-60.278054 V 366.39713"
         style="fill:none;stroke:#231f20;stroke-width:3.76305;stroke-linecap:butt;stroke-linejoin:miter;stroke-miterlimit:4;stroke-dasharray:none;stroke-opacity:1"
         id="path56" /><path
         d="m 1535.1395,413.81329 h 568.8936"
         style="fill:none;stroke:#231f20;stroke-width:3.76305;stroke-linecap:butt;stroke-linejoin:miter;stroke-miterlimit:4;stroke-dasharray:none;stroke-opacity:1"
         id="path58" /><path
         d="M 2198.8621,413.81329 H 2767.769"
         style="fill:none;stroke:#231f20;stroke-width:3.76305;stroke-linecap:butt;stroke-linejoin:miter;stroke-miterlimit:4;stroke-dasharray:none;stroke-opacity:1"
         id="path60" /><path
         d="m 1535.1395,-107.70258 h 568.8936"
         style="fill:none;stroke:#231f20;stroke-width:3.76305;stroke-linecap:butt;stroke-linejoin:miter;stroke-miterlimit:4;stroke-dasharray:none;stroke-opacity:1"
         id="path62" /><path
         d="m 1526.7254,-137.25175 592.9453,-458.96838"
         style="fill:none;stroke:#231f20;stroke-width:3.76305;stroke-linecap:butt;stroke-linejoin:miter;stroke-miterlimit:4;stroke-dasharray:none;stroke-opacity:1"
         id="path64" /><path
         d="m 1523.8571,445.85277 593.3551,457.96874"
         style="fill:none;stroke:#231f20;stroke-width:3.76305;stroke-linecap:butt;stroke-linejoin:miter;stroke-miterlimit:4;stroke-dasharray:none;stroke-opacity:1"
         id="path66" /><path
         d="M 1527.8359,-81.806071 2119.2191,384.12697"
         style="fill:none;stroke:#231f20;stroke-width:3.76305;stroke-linecap:butt;stroke-linejoin:miter;stroke-miterlimit:4;stroke-dasharray:none;stroke-opacity:1"
         id="path68" /><g
         id="g70"
         transform="matrix(16.724686,0,0,16.724686,-1.6885447,-691.45936)"
         style="stroke-width:0.225;stroke-miterlimit:4;stroke-dasharray:none"><text
           transform="matrix(1,0,0,-1,146.381,98.2305)"
           style="font-variant:normal;font-weight:normal;font-size:6px;font-family:Arial;-inkscape-font-specification:Arial;writing-mode:lr-tb;fill:#231f20;fill-opacity:1;fill-rule:nonzero;stroke:none;stroke-width:0.225;stroke-miterlimit:4;stroke-dasharray:none"
           id="text94"><tspan
             x="0"
             y="0"
             id="tspan72"
             style="stroke-width:0.225;stroke-miterlimit:4;stroke-dasharray:none">1</tspan><tspan
             x="21.764799"
             y="17.445299"
             id="tspan74"
             style="stroke-width:0.225;stroke-miterlimit:4;stroke-dasharray:none">7</tspan><tspan
             x="-78.193001"
             y="30.9914"
             id="tspan76"
             style="stroke-width:0.225;stroke-miterlimit:4;stroke-dasharray:none">4</tspan><tspan
             x="-117.2895"
             y="16.4492"
             id="tspan78"
             style="stroke-width:0.225;stroke-miterlimit:4;stroke-dasharray:none">1</tspan><tspan
             x="-78.621902"
             y="46.229301"
             id="tspan80"
             style="stroke-width:0.225;stroke-miterlimit:4;stroke-dasharray:none">1</tspan><tspan
             x="-39.0965"
             y="46.010159"
             id="tspan82"
             style="stroke-width:0.225;stroke-miterlimit:4;stroke-dasharray:none">1</tspan><tspan
             x="-96.895302"
             y="17.119959"
             id="tspan84"
             style="stroke-width:0.225;stroke-miterlimit:4;stroke-dasharray:none">2</tspan><tspan
             x="-42.380798"
             y="16.914881"
             id="tspan86"
             style="stroke-width:0.225;stroke-miterlimit:4;stroke-dasharray:none">5</tspan><tspan
             x="-56.341"
             y="48.405083"
             id="tspan88"
             style="stroke-width:0.225;stroke-miterlimit:4;stroke-dasharray:none">3</tspan><tspan
             x="-38.4613"
             y="62.232082"
             id="tspan90"
             style="stroke-width:0.225;stroke-miterlimit:4;stroke-dasharray:none">2</tspan><tspan
             x="-117.6297"
             y="0.211781"
             id="tspan92"
             style="stroke-width:0.225;stroke-miterlimit:4;stroke-dasharray:none">1</tspan></text></g><path
         d="M 207.69617,937.16552 H 776.6031"
         style="fill:none;stroke:#231f20;stroke-width:3.76305;stroke-linecap:butt;stroke-linejoin:miter;stroke-miterlimit:4;stroke-dasharray:none;stroke-opacity:1"
         id="path96" /><path
         d="m 160.29272,984.57164 c 26.11292,0 47.40345,-21.29888 47.40345,-47.4195 0,-26.10556 -21.29053,-47.40278 -47.40345,-47.40278 -26.11276,0 -47.41064,21.29722 -47.41064,47.40278 0,26.12062 21.29788,47.4195 47.41064,47.4195"
         style="fill:#ffffff;fill-opacity:1;fill-rule:evenodd;stroke:none;stroke-width:3.76305;stroke-miterlimit:4;stroke-dasharray:none"
         id="path98" /><path
         d="m 160.29272,984.57164 c 26.11292,0 47.40345,-21.29888 47.40345,-47.4195 0,-26.10556 -21.29053,-47.40278 -47.40345,-47.40278 -26.11276,0 -47.41064,21.29722 -47.41064,47.40278 0,26.12062 21.29788,47.4195 47.41064,47.4195 z"
         style="fill:none;stroke:#231f20;stroke-width:3.76305;stroke-linecap:butt;stroke-linejoin:miter;stroke-miterlimit:4;stroke-dasharray:none;stroke-opacity:1"
         id="path100" /><path
         d="M 191.48827,902.45511 782.86315,440.50087"
         style="fill:none;stroke:#231f20;stroke-width:3.76305;stroke-linecap:butt;stroke-linejoin:miter;stroke-miterlimit:4;stroke-dasharray:none;stroke-opacity:1"
         id="path102" /><path
         d="M 858.52229,446.47994 1455.8746,906.43391"
         style="fill:none;stroke:#231f20;stroke-width:3.76305;stroke-linecap:butt;stroke-linejoin:miter;stroke-miterlimit:4;stroke-dasharray:none;stroke-opacity:1"
         id="path104" /><path
         d="m 2186.6196,442.49445 593.3752,461.95424"
         style="fill:none;stroke:#231f20;stroke-width:3.76305;stroke-linecap:butt;stroke-linejoin:miter;stroke-miterlimit:4;stroke-dasharray:none;stroke-opacity:1"
         id="path106" /><g
         id="g108"
         transform="matrix(16.724686,0,0,16.724686,-1.6885447,-691.45936)"
         style="stroke-width:0.225;stroke-miterlimit:4;stroke-dasharray:none"><text
           transform="matrix(1,0,0,-1,69.2996,98.6961)"
           style="font-variant:normal;font-weight:normal;font-size:6px;font-family:Arial;-inkscape-font-specification:Arial;writing-mode:lr-tb;fill:#231f20;fill-opacity:1;fill-rule:nonzero;stroke:none;stroke-width:0.225;stroke-miterlimit:4;stroke-dasharray:none"
           id="text130"><tspan
             x="0"
             y="0"
             id="tspan110"
             style="stroke-width:0.225;stroke-miterlimit:4;stroke-dasharray:none">4</tspan><tspan
             x="38.8582"
             y="31.2297"
             id="tspan112"
             style="stroke-width:0.225;stroke-miterlimit:4;stroke-dasharray:none">2</tspan><tspan
             x="77.239502"
             y="15.2574"
             id="tspan114"
             style="stroke-width:0.225;stroke-miterlimit:4;stroke-dasharray:none">2</tspan><tspan
             x="60.393799"
             y="17.63006"
             id="tspan116"
             style="stroke-width:0.225;stroke-miterlimit:4;stroke-dasharray:none">1</tspan><tspan
             x="60.075439"
             y="48.870659"
             id="tspan118"
             style="stroke-width:0.225;stroke-miterlimit:4;stroke-dasharray:none">2</tspan><tspan
             x="-19.569859"
             y="49.548004"
             id="tspan120"
             style="stroke-width:0.225;stroke-miterlimit:4;stroke-dasharray:none">3</tspan><tspan
             x="-3.9714589"
             y="16.230404"
             id="tspan122"
             style="stroke-width:0.225;stroke-miterlimit:4;stroke-dasharray:none">3</tspan><tspan
             x="20.24184"
             y="17.603064"
             id="tspan124"
             style="stroke-width:0.225;stroke-miterlimit:4;stroke-dasharray:none">4</tspan><tspan
             x="38.938339"
             y="0.227264"
             id="tspan126"
             style="stroke-width:0.225;stroke-miterlimit:4;stroke-dasharray:none">1</tspan><tspan
             x="79.84034"
             y="31.668264"
             id="tspan128"
             style="stroke-width:0.225;stroke-miterlimit:4;stroke-dasharray:none">3</tspan></text><text
           transform="matrix(1,0,0,-1,0.215941,94.864136)"
           style="font-variant:normal;font-weight:normal;font-size:7.99981px;font-family:Arial;-inkscape-font-specification:Arial;writing-mode:lr-tb;fill:#231f20;fill-opacity:1;fill-rule:nonzero;stroke:none;stroke-width:0.225;stroke-miterlimit:4;stroke-dasharray:none"
           id="text136"><tspan
             x="173.879"
             y="93.864098"
             id="tspan134"
             style="stroke-width:0.225;stroke-miterlimit:4;stroke-dasharray:none" /></text></g><path
         d="m 157.06536,466.35222 c 26.10573,0 47.39793,-21.29722 47.39793,-47.41616 0,-26.10724 -21.2922,-47.40445 -47.39793,-47.40445 -26.11928,0 -47.41717,21.29721 -47.41717,47.40445 0,26.11894 21.29789,47.41616 47.41717,47.41616 z"
         style="fill:#ffffff;fill-opacity:1;stroke:#231f20;stroke-width:3.76305;stroke-linecap:butt;stroke-linejoin:miter;stroke-miterlimit:4;stroke-dasharray:none;stroke-opacity:1"
         id="path138" /><path
         d="m 160.61935,-59.083912 c 26.10573,0 47.40462,-21.297215 47.40462,-47.409468 0,-26.10724 -21.29889,-47.40445 -47.40462,-47.40445 -26.11927,0 -47.41716,21.29721 -47.41716,47.40445 0,26.112253 21.29789,47.409468 47.41716,47.409468 z"
         style="fill:#ffffff;fill-opacity:1;stroke:#231f20;stroke-width:3.76305;stroke-linecap:butt;stroke-linejoin:miter;stroke-miterlimit:4;stroke-dasharray:none;stroke-opacity:1"
         id="path140" /><path
         d="m 160.61935,-580.73023 c 26.10573,0 47.40462,-21.29119 47.40462,-47.41047 0,-26.10623 -21.29889,-47.40407 -47.40462,-47.40407 -26.11927,0 -47.41716,21.29784 -47.41716,47.40407 0,26.11928 21.29789,47.41047 47.41716,47.41047 z"
         style="fill:#ffffff;fill-opacity:1;stroke:#231f20;stroke-width:3.76305;stroke-linecap:butt;stroke-linejoin:miter;stroke-miterlimit:4;stroke-dasharray:none;stroke-opacity:1"
         id="path142" /><path
         d="M 160.61935,-152.41435 V -579.09037"
         style="fill:none;stroke:#231f20;stroke-width:3.76305;stroke-linecap:butt;stroke-linejoin:miter;stroke-miterlimit:4;stroke-dasharray:none;stroke-opacity:1"
         id="path144" /><path
         d="m 824.01424,-579.91356 c 26.10724,0 47.40445,-21.29789 47.40445,-47.417 0,-26.10623 -21.29721,-47.40411 -47.40445,-47.40411 -26.11894,0 -47.41114,21.29788 -47.41114,47.40411 0,26.11911 21.2922,47.417 47.41114,47.417 z"
         style="fill:#ffffff;fill-opacity:1;stroke:#231f20;stroke-width:3.76305;stroke-linecap:butt;stroke-linejoin:miter;stroke-miterlimit:4;stroke-dasharray:none;stroke-opacity:1"
         id="path146" /><path
         d="m 1487.7368,-579.91356 c 26.1055,0 47.4027,-21.29789 47.4027,-47.417 0,-26.10623 -21.2972,-47.40411 -47.4027,-47.40411 -26.119,0 -47.4179,21.29788 -47.4179,47.40411 0,26.11911 21.2989,47.417 47.4179,47.417 z"
         style="fill:#ffffff;fill-opacity:1;stroke:#231f20;stroke-width:3.76305;stroke-linecap:butt;stroke-linejoin:miter;stroke-miterlimit:4;stroke-dasharray:none;stroke-opacity:1"
         id="path148" /><path
         d="m 2151.4643,-579.91356 c 26.1072,0 47.3978,-21.29789 47.3978,-47.417 0,-26.10623 -21.2906,-47.40411 -47.3978,-47.40411 -26.1239,0 -47.4312,21.29788 -47.4312,47.40411 0,26.11911 21.3073,47.417 47.4312,47.417 z"
         style="fill:#ffffff;fill-opacity:1;stroke:#231f20;stroke-width:3.76305;stroke-linecap:butt;stroke-linejoin:miter;stroke-miterlimit:4;stroke-dasharray:none;stroke-opacity:1"
         id="path150" /><path
         d="m 2815.1668,-579.91356 c 26.1239,0 47.4145,-21.29789 47.4145,-47.417 0,-26.10623 -21.2906,-47.40411 -47.4145,-47.40411 -26.1073,0 -47.3978,21.29788 -47.3978,47.40411 0,26.11911 21.2905,47.417 47.3978,47.417"
         style="fill:#231f20;fill-opacity:1;fill-rule:evenodd;stroke:none;stroke-width:3.76305;stroke-miterlimit:4;stroke-dasharray:none"
         id="path152" /><path
         d="m 2815.1668,-579.91356 c 26.1239,0 47.4145,-21.29789 47.4145,-47.417 0,-26.10623 -21.2906,-47.40411 -47.4145,-47.40411 -26.1073,0 -47.3978,21.29788 -47.3978,47.40411 0,26.11911 21.2905,47.417 47.3978,47.417 z"
         style="fill:#ffffff;fill-opacity:1;stroke:#231f20;stroke-width:3.76305;stroke-linecap:butt;stroke-linejoin:miter;stroke-miterlimit:4;stroke-dasharray:none;stroke-opacity:1"
         id="path154" /><path
         d="m 2814.7487,-58.018549 c 26.1072,0 47.3977,-21.297216 47.3977,-47.416161 0,-26.10723 -21.2905,-47.40445 -47.3977,-47.40445 -26.124,0 -47.4145,21.29722 -47.4145,47.40445 0,26.118945 21.2905,47.416161 47.4145,47.416161 z"
         style="fill:#ffffff;fill-opacity:1;stroke:#231f20;stroke-width:3.76305;stroke-linecap:butt;stroke-linejoin:miter;stroke-miterlimit:4;stroke-dasharray:none;stroke-opacity:1"
         id="path156" /><path
         d="M 160.29924,368.2519 V -58.423287"
         style="fill:none;stroke:#231f20;stroke-width:3.76305;stroke-linecap:butt;stroke-linejoin:miter;stroke-miterlimit:4;stroke-dasharray:none;stroke-opacity:1"
         id="path158" /><path
         d="M 160.27967,889.74936 V 463.07251"
         style="fill:none;stroke:#231f20;stroke-width:3.76305;stroke-linecap:butt;stroke-linejoin:miter;stroke-miterlimit:4;stroke-dasharray:none;stroke-opacity:1"
         id="path160" /><path
         d="M 824.17145,-152.41435 V -579.09037"
         style="fill:none;stroke:#231f20;stroke-width:3.76305;stroke-linecap:butt;stroke-linejoin:miter;stroke-miterlimit:4;stroke-dasharray:none;stroke-opacity:1"
         id="path162" /><path
         d="M 1487.7234,-153.23721 V -579.91356"
         style="fill:none;stroke:#231f20;stroke-width:3.76305;stroke-linecap:butt;stroke-linejoin:miter;stroke-miterlimit:4;stroke-dasharray:none;stroke-opacity:1"
         id="path164" /><path
         d="M 2151.4309,-153.23721 V -579.91356"
         style="fill:none;stroke:#231f20;stroke-width:3.76305;stroke-linecap:butt;stroke-linejoin:miter;stroke-miterlimit:4;stroke-dasharray:none;stroke-opacity:1"
         id="path166" /><path
         d="M 2815.1668,-153.23721 V -579.91356"
         style="fill:none;stroke:#231f20;stroke-width:3.76305;stroke-linecap:butt;stroke-linejoin:miter;stroke-miterlimit:4;stroke-dasharray:none;stroke-opacity:1"
         id="path168" /><path
         d="M 2815.1668,368.2519 V -58.423287"
         style="fill:none;stroke:#231f20;stroke-width:3.76305;stroke-linecap:butt;stroke-linejoin:miter;stroke-miterlimit:4;stroke-dasharray:none;stroke-opacity:1"
         id="path170" /><path
         d="M 207.69617,415.65635 H 776.6031"
         style="fill:none;stroke:#231f20;stroke-width:3.76305;stroke-linecap:butt;stroke-linejoin:miter;stroke-miterlimit:4;stroke-dasharray:none;stroke-opacity:1"
         id="path172" /><path
         d="M 207.69617,-105.84112 H 776.6031"
         style="fill:none;stroke:#231f20;stroke-width:3.76305;stroke-linecap:butt;stroke-linejoin:miter;stroke-miterlimit:4;stroke-dasharray:none;stroke-opacity:1"
         id="path174" /><path
         d="M 207.69617,-627.33724 H 776.6031"
         style="fill:none;stroke:#231f20;stroke-width:3.76305;stroke-linecap:butt;stroke-linejoin:miter;stroke-miterlimit:4;stroke-dasharray:none;stroke-opacity:1"
         id="path176" /><path
         d="M 871.41869,-105.82105 H 1440.3189"
         style="fill:none;stroke:#231f20;stroke-width:3.76305;stroke-linecap:butt;stroke-linejoin:miter;stroke-miterlimit:4;stroke-dasharray:none;stroke-opacity:1"
         id="path178" /><path
         d="M 871.41869,-627.33724 H 1440.3189"
         style="fill:none;stroke:#231f20;stroke-width:3.76305;stroke-linecap:butt;stroke-linejoin:miter;stroke-miterlimit:4;stroke-dasharray:none;stroke-opacity:1"
         id="path180" /><path
         d="m 1535.1395,-627.33724 h 568.8936"
         style="fill:none;stroke:#231f20;stroke-width:3.76305;stroke-linecap:butt;stroke-linejoin:miter;stroke-miterlimit:4;stroke-dasharray:none;stroke-opacity:1"
         id="path182" /><path
         d="M 2198.8621,-627.33724 H 2767.769"
         style="fill:none;stroke:#231f20;stroke-width:3.76305;stroke-linecap:butt;stroke-linejoin:miter;stroke-miterlimit:4;stroke-dasharray:none;stroke-opacity:1"
         id="path184" /><path
         d="M 2198.8621,-105.82105 H 2767.769"
         style="fill:none;stroke:#231f20;stroke-width:3.76305;stroke-linecap:butt;stroke-linejoin:miter;stroke-miterlimit:4;stroke-dasharray:none;stroke-opacity:1"
         id="path186" /><path
         d="M 860.38375,-135.68967 1448.3485,-601.47921"
         style="fill:none;stroke:#231f20;stroke-width:3.76305;stroke-linecap:butt;stroke-linejoin:miter;stroke-miterlimit:4;stroke-dasharray:none;stroke-opacity:1"
         id="path188" /><path
         d="M 197.72658,-139.92937 789.03623,-598.85945"
         style="fill:none;stroke:#231f20;stroke-width:3.76305;stroke-linecap:butt;stroke-linejoin:miter;stroke-miterlimit:4;stroke-dasharray:none;stroke-opacity:1"
         id="path190" /><path
         d="M 192.05691,388.80486 787.61798,-78.630053"
         style="fill:none;stroke:#231f20;stroke-width:3.76305;stroke-linecap:butt;stroke-linejoin:miter;stroke-miterlimit:4;stroke-dasharray:none;stroke-opacity:1"
         id="path192" /><path
         d="m 2191.2356,-604.86997 591.3849,465.93237"
         style="fill:none;stroke:#231f20;stroke-width:3.76305;stroke-linecap:butt;stroke-linejoin:miter;stroke-miterlimit:4;stroke-dasharray:none;stroke-opacity:1"
         id="path194" /><path
         d="M 2185.4489,382.7221 2778.824,-81.217362"
         style="fill:none;stroke:#231f20;stroke-width:3.76305;stroke-linecap:butt;stroke-linejoin:miter;stroke-miterlimit:4;stroke-dasharray:none;stroke-opacity:1"
         id="path196" /><g
         id="g198"
         transform="matrix(16.724686,0,0,16.724686,-1.6885447,-691.45936)"
         style="stroke-width:0.225;stroke-miterlimit:4;stroke-dasharray:none"><text
           transform="matrix(1,0,0,-1,27.4258,36.1)"
           style="font-variant:normal;font-weight:normal;font-size:6px;font-family:Arial;-inkscape-font-specification:Arial;writing-mode:lr-tb;fill:#231f20;fill-opacity:1;fill-rule:nonzero;stroke:none;stroke-width:0.225;stroke-miterlimit:4;stroke-dasharray:none"
           id="text228"><tspan
             x="0"
             y="0"
             id="tspan200"
             style="stroke-width:0.225;stroke-miterlimit:4;stroke-dasharray:none">7</tspan><tspan
             x="120.619"
             y="14.391"
             id="tspan202"
             style="stroke-width:0.225;stroke-miterlimit:4;stroke-dasharray:none">3</tspan><tspan
             x="-17.459"
             y="-44.544899"
             id="tspan204"
             style="stroke-width:0.225;stroke-miterlimit:4;stroke-dasharray:none">1</tspan><tspan
             x="3.1120999"
             y="-14.6734"
             id="tspan206"
             style="stroke-width:0.225;stroke-miterlimit:4;stroke-dasharray:none">1</tspan><tspan
             x="120.2011"
             y="0.1426"
             id="tspan208"
             style="stroke-width:0.225;stroke-miterlimit:4;stroke-dasharray:none">1</tspan><tspan
             x="142.5452"
             y="-13.3015"
             id="tspan210"
             style="stroke-width:0.225;stroke-miterlimit:4;stroke-dasharray:none">1</tspan><tspan
             x="-0.98580003"
             y="31.196899"
             id="tspan212"
             style="stroke-width:0.225;stroke-miterlimit:4;stroke-dasharray:none">1</tspan><tspan
             x="0.094669998"
             y="-31.187901"
             id="tspan214"
             style="stroke-width:0.225;stroke-miterlimit:4;stroke-dasharray:none">2</tspan><tspan
             x="-17.326031"
             y="-13.3887"
             id="tspan216"
             style="stroke-width:0.225;stroke-miterlimit:4;stroke-dasharray:none">2</tspan><tspan
             x="42.185669"
             y="16.0746"
             id="tspan218"
             style="stroke-width:0.225;stroke-miterlimit:4;stroke-dasharray:none">6</tspan><tspan
             x="120.90247"
             y="31.4883"
             id="tspan220"
             style="stroke-width:0.225;stroke-miterlimit:4;stroke-dasharray:none">2</tspan><tspan
             x="141.73177 22.43857"
             y="17.6656"
             sodipodi:role="line"
             id="tspan222">62</tspan><tspan
             x="1.98777"
             y="15.77185"
             id="tspan224"
             style="stroke-width:0.225;stroke-miterlimit:4;stroke-dasharray:none">6</tspan><tspan
             x="40.52877"
             y="0.64134997"
             id="tspan226"
             style="stroke-width:0.225;stroke-miterlimit:4;stroke-dasharray:none">1</tspan></text><text
           transform="matrix(1,0,0,-1,109.09907,20.99065)"
           style="font-variant:normal;font-weight:normal;font-size:5.99971px;font-family:Arial;-inkscape-font-specification:Arial;writing-mode:lr-tb;fill:#231f20;fill-opacity:1;fill-rule:nonzero;stroke:none;stroke-width:0.225;stroke-miterlimit:4;stroke-dasharray:none"
           id="text232"><tspan
             x="0"
             y="0"
             id="tspan230"
             style="stroke-width:0.225;stroke-miterlimit:4;stroke-dasharray:none">4</tspan></text><text
           transform="matrix(1,0,0,-1,129.49477,18.60588)"
           style="font-variant:normal;font-weight:normal;font-size:6px;font-family:Arial;-inkscape-font-specification:Arial;writing-mode:lr-tb;fill:#231f20;fill-opacity:1;fill-rule:nonzero;stroke:none;stroke-width:0.225;stroke-miterlimit:4;stroke-dasharray:none"
           id="text244"><tspan
             x="0"
             y="0"
             id="tspan234"
             style="stroke-width:0.225;stroke-miterlimit:4;stroke-dasharray:none">4</tspan><tspan
             x="-118.725"
             y="0.189063"
             id="tspan236"
             style="stroke-width:0.225;stroke-miterlimit:4;stroke-dasharray:none">4</tspan><tspan
             x="19.719"
             y="-32.687138"
             id="tspan238"
             style="stroke-width:0.225;stroke-miterlimit:4;stroke-dasharray:none">6</tspan><tspan
             x="-40.199402"
             y="0.469163"
             id="tspan240"
             style="stroke-width:0.225;stroke-miterlimit:4;stroke-dasharray:none">7</tspan><tspan
             x="-22.021299 -61.40686"
             y="13.724263"
             sodipodi:role="line"
             id="tspan242">11</tspan></text></g><path
         d="M 865.82596,-77.283716 1459.1927,380.68503"
         style="fill:none;stroke:#231f20;stroke-width:3.76305;stroke-linecap:butt;stroke-linejoin:miter;stroke-miterlimit:4;stroke-dasharray:none;stroke-opacity:1"
         id="path246" /></g></g></svg>
